<svg width="589" height="520" viewBox="0 0 589 520" fill="none" xmlns="http://www.w3.org/2000/svg">
<path d="M497.855 455.599L429.53 407.273C452.573 384.826 473.532 352.862 493.576 316.722L561.9 365.048C534.599 396.054 511.471 426.484 497.855 455.599Z" fill="#31B582"/>
<path d="M497.873 404.148C509.011 404.148 518.039 395.119 518.039 383.982C518.039 372.845 509.011 363.816 497.873 363.816C486.736 363.816 477.708 372.845 477.708 383.982C477.708 395.119 486.736 404.148 497.873 404.148Z" fill="white"/>
<path d="M168.262 235.078H160.762C160.499 235.078 160.246 235.183 160.059 235.369C159.873 235.556 159.768 235.809 159.768 236.073V239.365C159.768 239.495 159.794 239.624 159.844 239.745C159.894 239.866 159.967 239.975 160.059 240.068C160.152 240.16 160.261 240.233 160.382 240.283C160.503 240.333 160.632 240.359 160.762 240.359H162.005V245.291H167.02V240.359H168.262C168.526 240.359 168.779 240.254 168.965 240.068C169.152 239.881 169.257 239.628 169.257 239.365V236.073C169.257 235.809 169.152 235.556 168.965 235.369C168.779 235.183 168.526 235.078 168.262 235.078V235.078Z" fill="#E6E6E6"/>
<path d="M175.774 265.206C171.181 258.485 168.833 250.483 169.066 242.345C169.071 242.158 169.01 241.974 168.894 241.826C168.778 241.678 168.615 241.575 168.432 241.534V240.111H160.511V241.514H160.402C160.295 241.514 160.189 241.535 160.091 241.576C159.992 241.617 159.903 241.677 159.827 241.753C159.752 241.828 159.692 241.918 159.651 242.017C159.611 242.115 159.59 242.221 159.59 242.328C159.59 242.348 159.591 242.367 159.592 242.387C160.323 250.69 158.083 258.984 153.271 265.79C152.992 266.186 152.85 266.663 152.865 267.147L153.731 293.939C153.752 294.536 154.003 295.103 154.431 295.52C154.86 295.937 155.433 296.172 156.031 296.177H173.947C174.551 296.172 175.13 295.931 175.56 295.506C175.99 295.08 176.237 294.504 176.248 293.899L176.581 267.887C176.591 266.932 176.31 265.997 175.774 265.206V265.206Z" fill="#31B582"/>
<path opacity="0.2" d="M166.699 236.151C166.699 236.72 166.473 237.265 166.071 237.668C165.668 238.07 165.123 238.296 164.554 238.296C163.985 238.296 163.439 238.07 163.037 237.668C162.634 237.265 162.408 236.72 162.408 236.151" fill="black"/>
<path d="M172.285 270.368H157.161V280.451H172.285V270.368Z" fill="white"/>
<path d="M405.602 339.742H391.563C391.069 339.742 390.596 339.938 390.247 340.287C389.898 340.636 389.702 341.109 389.702 341.603V347.765C389.702 348.259 389.898 348.733 390.247 349.082C390.596 349.431 391.069 349.627 391.563 349.627H393.89V358.86H403.276V349.627H405.602C406.096 349.627 406.569 349.431 406.919 349.082C407.268 348.733 407.464 348.259 407.464 347.765V341.603C407.464 341.109 407.268 340.636 406.919 340.287C406.569 339.938 406.096 339.742 405.602 339.742V339.742Z" fill="#E6E6E6"/>
<path d="M419.664 396.139C411.066 383.557 406.671 368.578 407.107 353.345C407.115 352.994 407.001 352.65 406.785 352.373C406.568 352.097 406.262 351.903 405.919 351.826V349.163H391.092V351.789H390.888C390.688 351.789 390.49 351.829 390.305 351.906C390.121 351.982 389.953 352.095 389.812 352.236C389.671 352.378 389.559 352.545 389.483 352.73C389.407 352.915 389.368 353.113 389.368 353.312C389.368 353.349 389.37 353.386 389.372 353.423C390.54 369.707 386.596 384.309 377.539 397.231C377.018 397.973 376.751 398.865 376.78 399.772L378.401 449.923C378.44 451.042 378.91 452.102 379.712 452.883C380.514 453.664 381.586 454.104 382.706 454.113H416.243C417.375 454.104 418.459 453.653 419.263 452.857C420.068 452.06 420.529 450.981 420.55 449.849L421.175 401.156C421.193 399.369 420.666 397.619 419.664 396.139V396.139Z" fill="#31B582"/>
<path opacity="0.2" d="M402.676 341.75C402.676 342.815 402.253 343.836 401.5 344.589C400.746 345.342 399.725 345.766 398.66 345.766C397.595 345.766 396.574 345.342 395.82 344.589C395.067 343.836 394.644 342.815 394.644 341.75" fill="black"/>
<path d="M414.355 412.797H385.164C384.732 412.797 384.305 412.891 383.912 413.071C383.519 413.252 383.17 413.515 382.889 413.843C382.608 414.171 382.401 414.556 382.282 414.971C382.163 415.387 382.136 415.823 382.201 416.25L386.613 444.923H411.943L417.301 416.347C417.382 415.914 417.367 415.469 417.256 415.042C417.146 414.616 416.943 414.219 416.661 413.881C416.38 413.542 416.028 413.269 415.629 413.082C415.231 412.895 414.796 412.797 414.355 412.797V412.797Z" fill="white"/>
<path d="M365.546 455.52H281.858C287.709 423.887 286.363 385.688 281.858 344.608H365.546C361.161 385.688 359.851 423.887 365.546 455.52Z" fill="#31B582"/>
<path d="M324.206 417.205C335.344 417.205 344.372 408.177 344.372 397.039C344.372 385.902 335.344 376.874 324.206 376.874C313.069 376.874 304.041 385.902 304.041 397.039C304.041 408.177 313.069 417.205 324.206 417.205Z" fill="white"/>
<path d="M23.243 106.466L42.03 104.758L53.986 75.724L32.637 63.768L23.243 106.466Z" fill="#FFB8B8"/>
<path d="M195.66 186.174C196.285 184.616 196.531 182.932 196.377 181.26C196.223 179.589 195.674 177.978 194.775 176.56C193.876 175.143 192.654 173.959 191.208 173.106C189.762 172.254 188.134 171.757 186.459 171.657L157.289 169.918L152.994 184.2L183.023 192.447C185.532 193.136 188.207 192.878 190.538 191.721C192.869 190.564 194.692 188.589 195.66 186.174V186.174Z" fill="#FFB8B8"/>
<path d="M164.339 192.687L164.018 165.887L99.2249 155.549L49.3095 98.3012C46.7125 95.3226 43.1239 93.3863 39.2086 92.8509C35.2933 92.3155 31.3166 93.2173 28.0153 95.3893C26.0164 96.7044 24.3307 98.4424 23.0775 100.481C21.8242 102.519 21.0339 104.807 20.7624 107.184C20.4909 109.562 20.7448 111.97 21.5063 114.238C22.2677 116.506 23.518 118.579 25.1689 120.311L66.3486 170.989L164.339 192.687Z" fill="#19A270"/>
<path d="M8.72559 494.167H25.8049L68.1681 302.633L112.055 361.802L137.674 489.897H153.9L150.484 352.408L93.2682 205.526H36.9065C21.5042 233.401 9.42184 262.135 23.243 291.777L8.72559 494.167Z" fill="#2F2E41"/>
<path d="M127.204 505.8C127.016 506.405 126.958 507.042 127.035 507.671C127.111 508.299 127.321 508.904 127.65 509.445C127.979 509.986 128.419 510.451 128.942 510.808C129.464 511.166 130.057 511.408 130.68 511.519L172.473 518.935C174.125 519.237 175.83 518.925 177.267 518.057C178.704 517.189 179.773 515.825 180.274 514.222V514.222C180.761 512.691 180.693 511.037 180.082 509.551C179.471 508.065 178.355 506.842 176.932 506.096C167.742 501.378 159.834 494.502 153.884 486.058C149.29 490.335 144.156 489.933 138.705 486.781L132.922 487.504L127.204 505.8Z" fill="#2F2E41"/>
<path d="M0.817655 505.8C0.628813 506.405 0.570859 507.042 0.647672 507.671C0.724485 508.299 0.934288 508.904 1.26312 509.445C1.59195 509.986 2.03227 510.451 2.55475 510.808C3.07722 511.166 3.66987 511.408 4.29324 511.519L46.0865 518.935C47.738 519.237 49.4429 518.925 50.8798 518.057C52.3168 517.189 53.3865 515.825 53.8873 514.222V514.222C54.3744 512.691 54.3064 511.037 53.6951 509.551C53.0839 508.065 51.9686 506.842 50.5451 506.096C41.3556 501.378 33.447 494.502 27.4967 486.058C22.9034 490.335 17.7694 489.933 12.3177 486.781L6.53528 487.504L0.817655 505.8Z" fill="#2F2E41"/>
<path d="M54.4128 86.3981C67.6185 86.3981 78.3238 75.6928 78.3238 62.4871C78.3238 49.2814 67.6185 38.576 54.4128 38.576C41.207 38.576 30.5017 49.2814 30.5017 62.4871C30.5017 75.6928 41.207 86.3981 54.4128 86.3981Z" fill="#FFB8B8"/>
<path d="M33.0635 211.931L95.403 210.223L77.0952 152.604C88.4726 134.364 77.0222 116.144 60.8174 97.9267L48.0079 89.3871L27.5127 87.6791C18.6391 97.1742 13.7837 109.735 13.9636 122.73C14.3694 150.556 19.2965 180.848 33.0635 211.931Z" fill="#19A270"/>
<path d="M176.292 250.716C177.479 249.529 178.367 248.077 178.883 246.48C179.399 244.883 179.528 243.186 179.26 241.529C178.991 239.872 178.333 238.303 177.339 236.95C176.345 235.598 175.043 234.501 173.542 233.75L147.409 220.675L137.842 232.116L162.205 251.511C164.241 253.132 166.802 253.947 169.4 253.8C171.998 253.653 174.451 252.555 176.292 250.716V250.716Z" fill="#FFB8B8"/>
<path d="M144.933 244.382L155.181 219.617L99.6789 184.623L76.3087 112.355C75.0928 108.595 72.5553 105.403 69.1662 103.371C65.7772 101.338 61.7664 100.603 57.8768 101.301V101.301C55.5218 101.724 53.2884 102.658 51.3344 104.039C49.3804 105.42 47.7535 107.213 46.5687 109.292C45.3839 111.371 44.6702 113.684 44.4779 116.069C44.2856 118.454 44.6195 120.852 45.456 123.094L63.3794 185.885L144.933 244.382Z" fill="#19A270"/>
<path d="M15.1302 53.0935C15.1302 62.3974 21.1725 76.8059 28.7937 82.9823C33.9215 87.138 40.6983 86.963 43.3111 81.2744C45.9914 75.4388 55.2306 61.7221 71.492 53.0935C93.1696 41.591 63.8044 21.9119 43.3111 24.9126C27.9115 27.1675 15.1302 37.5296 15.1302 53.0935Z" fill="#2F2E41"/>
<path d="M29.6477 40.284C39.0803 40.284 46.727 32.6373 46.727 23.2047C46.727 13.772 39.0803 6.12537 29.6477 6.12537C20.215 6.12537 12.5684 13.772 12.5684 23.2047C12.5684 32.6373 20.215 40.284 29.6477 40.284Z" fill="#2F2E41"/>
<path d="M49.2888 17.2269C49.2871 12.9211 47.6582 8.77498 44.7283 5.6196C41.7985 2.46422 37.7844 0.532731 33.4905 0.21228C33.9148 0.1807 34.339 0.147614 34.7714 0.147614C39.3011 0.147614 43.6453 1.94703 46.8483 5.15002C50.0513 8.35302 51.8507 12.6972 51.8507 17.2269C51.8507 21.7566 50.0513 26.1008 46.8483 29.3038C43.6453 32.5068 39.3011 34.3062 34.7714 34.3062C34.339 34.3062 33.9148 34.2731 33.4905 34.2415C37.7844 33.9211 41.7985 31.9896 44.7283 28.8342C47.6581 25.6789 49.2871 21.5328 49.2888 17.2269Z" fill="#2F2E41"/>
<path d="M54.8397 71.0268C56.962 71.0268 58.6825 68.7327 58.6825 65.903C58.6825 63.0732 56.962 60.7792 54.8397 60.7792C52.7173 60.7792 50.9968 63.0732 50.9968 65.903C50.9968 68.7327 52.7173 71.0268 54.8397 71.0268Z" fill="#FFB8B8"/>
<path d="M538.751 462.845H272.879L216.578 196.694H168.529V184.752H226.258L282.559 450.902H538.751V462.845Z" fill="#3F3D56"/>
<path d="M311.841 511.468C325.975 511.468 337.432 500.01 337.432 485.877C337.432 471.743 325.975 460.285 311.841 460.285C297.707 460.285 286.25 471.743 286.25 485.877C286.25 500.01 297.707 511.468 311.841 511.468Z" fill="#3F3D56"/>
<path d="M502.923 511.468C517.057 511.468 528.515 500.01 528.515 485.877C528.515 471.743 517.057 460.285 502.923 460.285C488.79 460.285 477.332 471.743 477.332 485.877C477.332 500.01 488.79 511.468 502.923 511.468Z" fill="#3F3D56"/>
<path d="M533.904 457.221H275.225L229.584 231.669H576.735C578.507 231.669 580.257 232.053 581.866 232.794C583.475 233.535 584.904 234.616 586.055 235.963C587.207 237.309 588.053 238.888 588.535 240.593C589.018 242.297 589.126 244.086 588.851 245.836L546.018 446.861C545.576 449.753 544.109 452.39 541.886 454.292C539.662 456.194 536.829 457.233 533.904 457.221V457.221ZM278.034 453.809H533.904C536.015 453.818 538.06 453.067 539.664 451.695C541.269 450.322 542.327 448.419 542.646 446.331L585.479 245.306C585.677 244.043 585.6 242.752 585.252 241.522C584.904 240.291 584.293 239.151 583.462 238.18C582.631 237.208 581.6 236.428 580.438 235.893C579.277 235.358 578.014 235.081 576.735 235.081H233.726L278.034 453.809Z" fill="#3F3D56"/>
<path d="M325.513 456.499L295.623 233.653L298.989 233.097L328.879 455.943L325.513 456.499Z" fill="#3F3D56"/>
<path d="M491.712 454.788L488.343 454.242L517.36 233.102L520.729 233.648L491.712 454.788Z" fill="#3F3D56"/>
<path d="M412.527 233.375H409.115V456.221H412.527V233.375Z" fill="#3F3D56"/>
<path d="M247.014 293.088L247.005 296.501L577.3 297.3L577.308 293.888L247.014 293.088Z" fill="#3F3D56"/>
<path d="M554 398.494L263.829 400.478L263.853 403.89L554.024 401.906L554 398.494Z" fill="#3F3D56"/>
<path d="M173.648 199.253C184.012 199.253 192.415 194.67 192.415 189.017C192.415 183.363 184.012 178.78 173.648 178.78C163.283 178.78 154.881 183.363 154.881 189.017C154.881 194.67 163.283 199.253 173.648 199.253Z" fill="#3F3D56"/>
</svg>
